<?xml version="1.0" encoding="UTF-8"?>
<svg xmlns="http://www.w3.org/2000/svg" xmlns:xlink="http://www.w3.org/1999/xlink" width="100px" height="100px" viewBox="0 0 100 100" version="1.1">
<g id="surface315326">
<path style=" stroke:none;fill-rule:nonzero;fill:rgb(78.039216%,92.941176%,90.196078%);fill-opacity:1;" d="M 87.214844 56.710938 C 88.351562 54.554688 89 52.105469 89 49.5 C 89 42.878906 84.839844 37.242188 79 35.023438 C 79 35.015625 79 35.007812 79 35 C 79 23.402344 69.597656 14 58 14 C 48.214844 14 40.019531 20.699219 37.6875 29.757812 C 36.210938 29.273438 34.636719 29 33 29 C 25.308594 29 18.976562 34.792969 18.109375 42.253906 C 12.90625 43.351562 9 47.96875 9 53.5 C 9 59.851562 14.148438 65 20.5 65 C 20.675781 65 20.851562 64.988281 21.027344 64.976562 C 21.023438 65.152344 21 65.324219 21 65.5 C 21 76.820312 30.179688 86 41.5 86 C 47.9375 86 53.675781 83.027344 57.433594 78.386719 C 59.613281 80.609375 62.640625 82 66 82 C 70.648438 82 74.675781 79.351562 76.664062 75.480469 C 77.71875 75.816406 78.835938 76 80 76 C 86.074219 76 91 71.074219 91 65 C 91 61.6875 89.53125 58.726562 87.214844 56.710938 Z M 87.214844 56.710938 "/>
<path style=" stroke:none;fill-rule:nonzero;fill:rgb(99.215686%,98.823529%,93.72549%);fill-opacity:1;" d="M 77.5 60.5 L 77.5 61 L 80.5 61 L 80.5 60.5 C 80.5 60.5 84.742188 60.5 86 60.5 C 88.484375 60.5 90.5 58.484375 90.5 56 C 90.5 53.667969 88.71875 51.769531 86.445312 51.546875 C 86.46875 51.363281 86.5 51.1875 86.5 51 C 86.5 48.515625 84.484375 46.5 82 46.5 C 80.5625 46.5 79.296875 47.1875 78.472656 48.234375 C 78.332031 45.601562 76.171875 43.5 73.5 43.5 C 70.738281 43.5 68.5 45.738281 68.5 48.5 C 68.5 48.945312 68.578125 49.371094 68.6875 49.78125 C 68.046875 49.003906 67.085938 48.5 66 48.5 C 64.21875 48.5 62.765625 49.835938 62.546875 51.554688 C 62.363281 51.53125 62.1875 51.5 62 51.5 C 59.515625 51.5 57.5 53.515625 57.5 56 C 57.5 58.484375 59.515625 60.5 62 60.5 C 64.484375 60.5 71.5 60.5 71.5 60.5 Z M 77.5 60.5 "/>
<path style=" stroke:none;fill-rule:nonzero;fill:rgb(27.843137%,16.862745%,16.078431%);fill-opacity:1;" d="M 73.5 43 C 70.46875 43 68 45.46875 68 48.5 C 68 48.515625 68 48.53125 68 48.546875 C 67.398438 48.191406 66.710938 48 66 48 C 64.167969 48 62.589844 49.261719 62.140625 51.003906 C 62.09375 51.003906 62.046875 51 62 51 C 59.242188 51 57 53.242188 57 56 C 57 58.757812 59.242188 61 62 61 L 77.5 61 C 77.777344 61 78 60.777344 78 60.5 C 78 60.222656 77.777344 60 77.5 60 L 62 60 C 59.792969 60 58 58.207031 58 56 C 58 53.792969 59.792969 52 62 52 C 62.117188 52 62.230469 52.015625 62.34375 52.03125 L 62.484375 52.050781 C 62.503906 52.054688 62.523438 52.054688 62.546875 52.054688 C 62.792969 52.054688 63.007812 51.871094 63.039062 51.617188 C 63.230469 50.125 64.503906 49 66 49 C 66.886719 49 67.722656 49.402344 68.300781 50.101562 C 68.398438 50.21875 68.542969 50.28125 68.6875 50.28125 C 68.765625 50.28125 68.84375 50.265625 68.914062 50.226562 C 69.125 50.117188 69.230469 49.878906 69.167969 49.652344 C 69.054688 49.21875 69 48.851562 69 48.5 C 69 46.019531 71.019531 44 73.5 44 C 75.882812 44 77.847656 45.871094 77.972656 48.261719 C 77.984375 48.472656 78.125 48.648438 78.324219 48.714844 C 78.371094 48.730469 78.425781 48.738281 78.476562 48.738281 C 78.625 48.738281 78.769531 48.667969 78.867188 48.546875 C 79.636719 47.5625 80.777344 47 82 47 C 84.207031 47 86 48.792969 86 51 C 86 51.117188 85.984375 51.230469 85.96875 51.34375 L 85.949219 51.484375 C 85.933594 51.617188 85.972656 51.753906 86.054688 51.855469 C 86.140625 51.960938 86.261719 52.027344 86.394531 52.042969 C 88.449219 52.246094 90 53.949219 90 56 C 90 58.207031 88.207031 60 86 60 L 80.5 60 C 80.222656 60 80 60.222656 80 60.5 C 80 60.777344 80.222656 61 80.5 61 L 86 61 C 88.757812 61 91 58.757812 91 56 C 91 53.601562 89.3125 51.585938 86.996094 51.121094 C 87 51.082031 87 51.039062 87 51 C 87 48.242188 84.757812 46 82 46 C 80.824219 46 79.707031 46.414062 78.816406 47.164062 C 78.21875 44.761719 76.054688 43 73.5 43 Z M 73.5 43 "/>
<path style=" stroke:none;fill-rule:nonzero;fill:rgb(27.843137%,16.862745%,16.078431%);fill-opacity:1;" d="M 72 50 C 70.597656 50 69.390625 51 69.085938 52.339844 C 68.71875 52.117188 68.300781 52 67.875 52 C 66.671875 52 65.675781 52.898438 65.523438 54.066406 C 65.320312 54.023438 65.125 54 64.9375 54 C 63.410156 54 62.128906 55.199219 62.019531 56.730469 C 62.011719 56.871094 62.113281 56.988281 62.25 57 C 62.257812 57 62.261719 57 62.269531 57 C 62.398438 57 62.507812 56.898438 62.519531 56.769531 C 62.605469 55.496094 63.667969 54.5 64.9375 54.5 C 65.164062 54.5 65.40625 54.542969 65.675781 54.628906 C 65.695312 54.632812 65.71875 54.636719 65.742188 54.636719 C 65.796875 54.636719 65.851562 54.617188 65.898438 54.582031 C 65.960938 54.535156 66 54.453125 66 54.375 C 66 53.339844 66.839844 52.5 67.875 52.5 C 68.320312 52.5 68.761719 52.667969 69.105469 52.972656 C 69.152344 53.015625 69.210938 53.035156 69.269531 53.035156 C 69.304688 53.035156 69.335938 53.03125 69.363281 53.015625 C 69.453125 52.980469 69.511719 52.898438 69.519531 52.804688 C 69.621094 51.511719 70.710938 50.5 72 50.5 C 72.207031 50.5 72.425781 50.535156 72.683594 50.605469 C 72.703125 50.613281 72.730469 50.617188 72.753906 50.617188 C 72.859375 50.617188 72.960938 50.542969 72.992188 50.433594 C 73.027344 50.300781 72.953125 50.164062 72.820312 50.125 C 72.515625 50.039062 72.257812 50 72 50 Z M 85.882812 51.5 C 84.558594 51.5 83.375 52.398438 83.007812 53.683594 C 82.972656 53.816406 83.046875 53.953125 83.179688 53.992188 C 83.203125 53.996094 83.226562 54 83.25 54 C 83.359375 54 83.460938 53.929688 83.488281 53.816406 C 83.796875 52.746094 84.777344 52 85.882812 52 C 86 52 86.113281 52.015625 86.226562 52.027344 C 86.238281 52.03125 86.246094 52.03125 86.261719 52.03125 C 86.382812 52.03125 86.488281 51.941406 86.507812 51.816406 C 86.523438 51.679688 86.429688 51.550781 86.292969 51.535156 C 86.15625 51.515625 86.023438 51.5 85.882812 51.5 Z M 85.882812 51.5 "/>
<path style=" stroke:none;fill-rule:nonzero;fill:rgb(100%,100%,100%);fill-opacity:1;" d="M 15.5 51 L 5.5 51 C 5.222656 51 5 50.777344 5 50.5 C 5 50.222656 5.222656 50 5.5 50 L 15.5 50 C 15.777344 50 16 50.222656 16 50.5 C 16 50.777344 15.777344 51 15.5 51 Z M 18.5 51 L 17.5 51 C 17.222656 51 17 50.777344 17 50.5 C 17 50.222656 17.222656 50 17.5 50 L 18.5 50 C 18.777344 50 19 50.222656 19 50.5 C 19 50.777344 18.777344 51 18.5 51 Z M 23.492188 53 L 14.5 53 C 14.222656 53 14 52.777344 14 52.5 C 14 52.222656 14.222656 52 14.5 52 L 23.492188 52 C 23.765625 52 23.992188 52.222656 23.992188 52.5 C 23.992188 52.777344 23.765625 53 23.492188 53 Z M 12.5 53 L 11.5 53 C 11.222656 53 11 52.777344 11 52.5 C 11 52.222656 11.222656 52 11.5 52 L 12.5 52 C 12.777344 52 13 52.222656 13 52.5 C 13 52.777344 12.777344 53 12.5 53 Z M 9.5 53 L 7.5 53 C 7.222656 53 7 52.777344 7 52.5 C 7 52.222656 7.222656 52 7.5 52 L 9.5 52 C 9.777344 52 10 52.222656 10 52.5 C 10 52.777344 9.777344 53 9.5 53 Z M 15.5 55 L 13.5 55 C 13.222656 55 13 54.777344 13 54.5 C 13 54.222656 13.222656 54 13.5 54 L 15.5 54 C 15.777344 54 16 54.222656 16 54.5 C 16 54.777344 15.777344 55 15.5 55 Z M 18.5 46 C 18.324219 46 17.675781 46 17.5 46 C 17.222656 46 17 46.222656 17 46.5 C 17 46.777344 17.222656 47 17.5 47 C 17.675781 47 18.324219 47 18.5 47 C 18.777344 47 19 46.777344 19 46.5 C 19 46.222656 18.777344 46 18.5 46 Z M 18.5 48 C 18.324219 48 13.675781 48 13.5 48 C 13.222656 48 13 48.222656 13 48.5 C 13 48.777344 13.222656 49 13.5 49 C 13.675781 49 18.324219 49 18.5 49 C 18.777344 49 19 48.777344 19 48.5 C 19 48.222656 18.777344 48 18.5 48 Z M 23.5 50 C 23.324219 50 20.675781 50 20.5 50 C 20.222656 50 20 50.222656 20 50.5 C 20 50.777344 20.222656 51 20.5 51 C 20.675781 51 23.324219 51 23.5 51 C 23.777344 51 24 50.777344 24 50.5 C 24 50.222656 23.777344 50 23.5 50 Z M 23.5 50 "/>
<path style=" stroke:none;fill-rule:nonzero;fill:rgb(100%,100%,100%);fill-opacity:1;" d="M 72.5 24 L 62.5 24 C 62.222656 24 62 23.777344 62 23.5 C 62 23.222656 62.222656 23 62.5 23 L 72.5 23 C 72.777344 23 73 23.222656 73 23.5 C 73 23.777344 72.777344 24 72.5 24 Z M 76.5 24 L 74.5 24 C 74.222656 24 74 23.777344 74 23.5 C 74 23.222656 74.222656 23 74.5 23 L 76.5 23 C 76.777344 23 77 23.222656 77 23.5 C 77 23.777344 76.777344 24 76.5 24 Z M 81.5 26 L 71.5 26 C 71.222656 26 71 25.777344 71 25.5 C 71 25.222656 71.222656 25 71.5 25 L 81.5 25 C 81.777344 25 82 25.222656 82 25.5 C 82 25.777344 81.777344 26 81.5 26 Z M 69.5 26 L 68.5 26 C 68.222656 26 68 25.777344 68 25.5 C 68 25.222656 68.222656 25 68.5 25 L 69.5 25 C 69.777344 25 70 25.222656 70 25.5 C 70 25.777344 69.777344 26 69.5 26 Z M 66.46875 26 L 64.5 26 C 64.222656 26 64 25.777344 64 25.5 C 64 25.222656 64.222656 25 64.5 25 L 66.46875 25 C 66.746094 25 66.96875 25.222656 66.96875 25.5 C 66.96875 25.777344 66.746094 26 66.46875 26 Z M 75.5 22 L 70.5 22 C 70.222656 22 70 21.777344 70 21.5 C 70 21.222656 70.222656 21 70.5 21 L 75.5 21 C 75.777344 21 76 21.222656 76 21.5 C 76 21.777344 75.777344 22 75.5 22 Z M 72.5 28 L 70.5 28 C 70.222656 28 70 27.777344 70 27.5 C 70 27.222656 70.222656 27 70.5 27 L 72.5 27 C 72.777344 27 73 27.222656 73 27.5 C 73 27.777344 72.777344 28 72.5 28 Z M 72.5 28 "/>
<path style=" stroke:none;fill-rule:nonzero;fill:rgb(63.921569%,63.921569%,80.392157%);fill-opacity:1;" d="M 52 26.75 C 39.160156 26.75 28.75 37.160156 28.75 50 C 28.75 62.839844 39.160156 73.25 52 73.25 C 64.839844 73.25 75.25 62.839844 75.25 50 C 75.25 37.160156 64.839844 26.75 52 26.75 Z M 52 26.75 "/>
<path style=" stroke:none;fill-rule:nonzero;fill:rgb(27.843137%,16.862745%,16.078431%);fill-opacity:1;" d="M 52 73.949219 C 38.792969 73.949219 28.050781 63.207031 28.050781 50 C 28.050781 36.792969 38.792969 26.050781 52 26.050781 C 65.207031 26.050781 75.949219 36.792969 75.949219 50 C 75.949219 63.207031 65.207031 73.949219 52 73.949219 Z M 52 27.449219 C 39.566406 27.449219 29.449219 37.566406 29.449219 50 C 29.449219 62.433594 39.566406 72.550781 52 72.550781 C 64.433594 72.550781 74.550781 62.433594 74.550781 50 C 74.550781 37.566406 64.433594 27.449219 52 27.449219 Z M 52 27.449219 "/>
<path style=" stroke:none;fill-rule:nonzero;fill:rgb(33.72549%,37.254902%,63.137255%);fill-opacity:1;" d="M 52 30.5 C 41.230469 30.5 32.5 39.230469 32.5 50 C 32.5 60.769531 41.230469 69.5 52 69.5 C 62.769531 69.5 71.5 60.769531 71.5 50 C 71.5 39.230469 62.769531 30.5 52 30.5 Z M 52 30.5 "/>
<path style=" stroke:none;fill-rule:nonzero;fill:rgb(27.843137%,16.862745%,16.078431%);fill-opacity:1;" d="M 70.621094 44.988281 C 70.410156 44.988281 70.210938 44.847656 70.144531 44.632812 C 70.0625 44.359375 69.96875 44.085938 69.875 43.816406 C 69.5 42.769531 69.023438 41.75 68.464844 40.78125 C 68.328125 40.542969 68.410156 40.238281 68.648438 40.097656 C 68.886719 39.957031 69.191406 40.039062 69.332031 40.28125 C 69.921875 41.300781 70.417969 42.378906 70.8125 43.480469 C 70.914062 43.761719 71.011719 44.050781 71.101562 44.339844 C 71.183594 44.605469 71.035156 44.882812 70.769531 44.964844 C 70.722656 44.980469 70.671875 44.988281 70.621094 44.988281 Z M 70.621094 44.988281 "/>
<path style=" stroke:none;fill-rule:nonzero;fill:rgb(27.843137%,16.862745%,16.078431%);fill-opacity:1;" d="M 52 70.035156 C 40.953125 70.035156 31.964844 61.074219 31.964844 50.058594 C 31.964844 39.046875 40.953125 30.085938 52 30.085938 C 57.734375 30.085938 63.203125 32.539062 67.007812 36.824219 C 67.292969 37.148438 67.570312 37.480469 67.839844 37.824219 C 68.007812 38.042969 67.96875 38.355469 67.75 38.523438 C 67.535156 38.699219 67.21875 38.65625 67.050781 38.4375 C 66.796875 38.113281 66.53125 37.796875 66.261719 37.488281 C 62.644531 33.417969 57.449219 31.085938 52 31.085938 C 41.503906 31.085938 32.964844 39.597656 32.964844 50.058594 C 32.964844 60.523438 41.503906 69.035156 52 69.035156 C 62.496094 69.035156 71.035156 60.523438 71.035156 50.058594 C 71.035156 49.105469 70.964844 48.148438 70.820312 47.214844 C 70.78125 46.941406 70.96875 46.683594 71.242188 46.644531 C 71.515625 46.601562 71.769531 46.789062 71.8125 47.0625 C 71.960938 48.046875 72.035156 49.054688 72.035156 50.058594 C 72.035156 61.074219 63.046875 70.035156 52 70.035156 Z M 52 70.035156 "/>
<path style=" stroke:none;fill-rule:nonzero;fill:rgb(99.215686%,98.823529%,93.72549%);fill-opacity:1;" d="M 36.5 73.5 C 36.5 73.5 38.066406 73.5 40 73.5 C 41.933594 73.5 43.5 71.933594 43.5 70 C 43.5 68.21875 42.164062 66.765625 40.445312 66.546875 C 40.472656 66.367188 40.5 66.1875 40.5 66 C 40.5 64.066406 38.933594 62.5 37 62.5 C 35.96875 62.5 35.050781 62.953125 34.410156 63.664062 C 34.027344 61.855469 32.421875 60.5 30.5 60.5 C 28.289062 60.5 26.5 62.289062 26.5 64.5 C 26.5 64.691406 26.53125 64.875 26.554688 65.058594 C 26.128906 64.714844 25.59375 64.5 25 64.5 C 23.773438 64.5 22.753906 65.386719 22.546875 66.554688 C 22.367188 66.527344 22.1875 66.5 22 66.5 C 20.066406 66.5 18.5 68.066406 18.5 70 C 18.5 71.933594 20.066406 73.5 22 73.5 C 23.933594 73.5 29.5 73.5 29.5 73.5 L 29.5 74 L 36.5 74 Z M 36.5 73.5 "/>
<path style=" stroke:none;fill-rule:nonzero;fill:rgb(27.843137%,16.862745%,16.078431%);fill-opacity:1;" d="M 38.25 69 C 38.113281 69 38 68.886719 38 68.75 C 38 67.527344 38.996094 66.53125 40.21875 66.53125 C 40.253906 66.539062 40.953125 66.53125 41.460938 66.667969 C 41.59375 66.703125 41.675781 66.839844 41.636719 66.972656 C 41.601562 67.109375 41.464844 67.1875 41.332031 67.148438 C 40.886719 67.03125 40.230469 67.03125 40.21875 67.03125 C 39.269531 67.03125 38.5 67.804688 38.5 68.75 C 38.5 68.886719 38.386719 69 38.25 69 Z M 31.5 73 C 31.222656 73 31 73.222656 31 73.5 C 31 73.777344 31.222656 74 31.5 74 C 31.777344 74 32 73.777344 32 73.5 C 32 73.222656 31.777344 73 31.5 73 Z M 31.5 73 "/>
<path style=" stroke:none;fill-rule:nonzero;fill:rgb(27.843137%,16.862745%,16.078431%);fill-opacity:1;" d="M 40 74 L 36.5 74 C 36.222656 74 36 73.777344 36 73.5 C 36 73.222656 36.222656 73 36.5 73 L 40 73 C 41.652344 73 43 71.652344 43 70 C 43 68.503906 41.875 67.230469 40.382812 67.039062 C 40.246094 67.023438 40.128906 66.953125 40.046875 66.84375 C 39.964844 66.738281 39.929688 66.601562 39.953125 66.46875 C 39.976562 66.3125 40 66.160156 40 66 C 40 64.347656 38.652344 63 37 63 C 36.148438 63 35.363281 63.355469 34.78125 64 C 34.65625 64.140625 34.460938 64.199219 34.28125 64.148438 C 34.097656 64.097656 33.960938 63.953125 33.921875 63.769531 C 33.578125 62.164062 32.140625 61 30.5 61 C 28.570312 61 27 62.570312 27 64.5 C 27 64.644531 27.019531 64.78125 27.039062 64.917969 C 27.070312 65.121094 26.976562 65.355469 26.800781 65.457031 C 26.621094 65.558594 26.402344 65.574219 26.242188 65.449219 C 25.878906 65.15625 25.449219 65 25 65 C 24.035156 65 23.207031 65.691406 23.035156 66.644531 C 22.988281 66.910156 22.742188 67.089844 22.46875 67.050781 C 22.3125 67.023438 22.160156 67 22 67 C 20.347656 67 19 68.347656 19 70 C 19 71.652344 20.347656 73 22 73 L 29.5 73 C 29.777344 73 30 73.222656 30 73.5 C 30 73.777344 29.777344 74 29.5 74 L 22 74 C 19.792969 74 18 72.207031 18 70 C 18 67.792969 19.792969 66 22 66 C 22.058594 66 22.117188 66.003906 22.175781 66.007812 C 22.589844 64.820312 23.710938 64 25 64 C 25.347656 64 25.6875 64.0625 26.011719 64.179688 C 26.175781 61.847656 28.125 60 30.5 60 C 32.332031 60 33.964844 61.128906 34.652344 62.773438 C 35.332031 62.277344 36.15625 62 37 62 C 39.207031 62 41 63.792969 41 66 C 41 66.046875 41 66.09375 40.996094 66.140625 C 42.738281 66.589844 44 68.167969 44 70 C 44 72.207031 42.207031 74 40 74 Z M 40 74 "/>
<path style=" stroke:none;fill-rule:nonzero;fill:rgb(27.843137%,16.862745%,16.078431%);fill-opacity:1;" d="M 34.5 73 C 34.339844 73 33.660156 73 33.5 73 C 33.222656 73 33 73.222656 33 73.5 C 33 73.777344 33.222656 74 33.5 74 C 33.660156 74 34.339844 74 34.5 74 C 34.777344 74 35 73.777344 35 73.5 C 35 73.222656 34.777344 73 34.5 73 Z M 34.5 73 "/>
<path style=" stroke:none;fill-rule:nonzero;fill:rgb(99.607843%,99.215686%,93.72549%);fill-opacity:1;" d="M 63.539062 41.828125 C 63.824219 40.246094 63.65625 38.332031 63.015625 36.414062 C 59.796875 36.414062 57.3125 38.601562 56.890625 39 L 47.675781 39 C 47.253906 38.605469 44.773438 36.414062 41.554688 36.414062 C 40.976562 38.140625 40.78125 39.863281 40.957031 41.347656 C 39.144531 42.992188 38 45.359375 38 48 C 38 52.972656 42.027344 57 47 57 L 48.835938 57 C 47.394531 57.660156 46.34375 59 46.078125 60.613281 C 44.460938 60.78125 42.5 60.628906 41.554688 59.207031 C 39.78125 56.554688 38.898438 56.554688 38.011719 56.554688 C 37.128906 56.554688 37.128906 57.4375 38.011719 58.324219 C 38.898438 59.207031 38.898438 59.207031 39.78125 60.976562 C 40.511719 62.4375 42.394531 64.085938 46 63.640625 L 46 66.96875 C 46 67.621094 46.019531 68.097656 46.25 68.664062 C 48.417969 69.414062 52.546875 69.976562 57.667969 68.695312 C 57.875 68.160156 58 67.582031 58 66.96875 L 58 61.394531 C 58 59.4375 56.835938 57.765625 55.164062 57 L 57 57 C 61.972656 57 66 52.96875 66 48 C 66 45.609375 65.0625 43.441406 63.539062 41.828125 Z M 63.539062 41.828125 "/>
<path style=" stroke:none;fill-rule:nonzero;fill:rgb(27.843137%,16.862745%,16.078431%);fill-opacity:1;" d="M 51.699219 69.960938 C 48.789062 69.960938 46.820312 69.394531 46.085938 69.140625 C 45.953125 69.09375 45.84375 68.992188 45.789062 68.859375 C 45.519531 68.210938 45.5 67.667969 45.5 66.972656 L 45.5 64.191406 C 41.328125 64.488281 39.734375 62 39.335938 61.203125 C 38.484375 59.503906 38.484375 59.503906 37.660156 58.679688 C 36.972656 57.988281 36.699219 57.246094 36.929688 56.6875 C 37.097656 56.285156 37.492188 56.054688 38.011719 56.054688 C 39.203125 56.054688 40.1875 56.261719 41.96875 58.933594 C 42.722656 60.0625 44.324219 60.230469 45.660156 60.148438 C 45.90625 59.125 46.445312 58.207031 47.203125 57.503906 L 47 57.503906 C 41.761719 57.503906 37.5 53.238281 37.5 48.003906 C 37.5 45.425781 38.566406 42.941406 40.433594 41.152344 C 40.296875 39.621094 40.519531 37.9375 41.078125 36.253906 C 41.148438 36.050781 41.339844 35.914062 41.554688 35.914062 C 44.683594 35.914062 47.132812 37.847656 47.871094 38.5 L 56.699219 38.5 C 57.4375 37.847656 59.886719 35.914062 63.015625 35.914062 C 63.230469 35.914062 63.421875 36.050781 63.488281 36.253906 C 64.113281 38.121094 64.316406 40.03125 64.074219 41.671875 C 65.640625 43.417969 66.5 45.65625 66.5 48 C 66.5 53.238281 62.238281 57.5 57 57.5 L 56.800781 57.5 C 57.863281 58.492188 58.5 59.898438 58.5 61.394531 L 58.5 66.972656 C 58.5 67.605469 58.378906 68.242188 58.136719 68.875 C 58.078125 69.027344 57.949219 69.144531 57.789062 69.183594 C 55.472656 69.761719 53.421875 69.960938 51.699219 69.960938 Z M 46.636719 68.269531 C 47.976562 68.691406 51.804688 69.589844 57.285156 68.277344 C 57.429688 67.839844 57.5 67.402344 57.5 66.972656 L 57.5 61.394531 C 57.5 59.707031 56.503906 58.160156 54.957031 57.457031 C 54.742188 57.355469 54.625 57.125 54.675781 56.894531 C 54.726562 56.664062 54.929688 56.5 55.164062 56.5 L 57 56.5 C 61.6875 56.5 65.5 52.6875 65.5 48 C 65.5 45.828125 64.675781 43.761719 63.175781 42.171875 C 63.066406 42.058594 63.019531 41.898438 63.046875 41.742188 C 63.304688 40.3125 63.164062 38.613281 62.652344 36.921875 C 59.816406 37.074219 57.652344 38.972656 57.230469 39.363281 C 57.140625 39.449219 57.015625 39.5 56.890625 39.5 L 47.675781 39.5 C 47.550781 39.5 47.425781 39.449219 47.335938 39.363281 C 46.914062 38.972656 44.75 37.074219 41.914062 36.921875 C 41.453125 38.441406 41.292969 39.941406 41.453125 41.289062 C 41.472656 41.449219 41.410156 41.605469 41.292969 41.714844 C 39.519531 43.328125 38.5 45.617188 38.5 48 C 38.5 52.6875 42.3125 56.5 47 56.5 L 48.835938 56.5 C 49.070312 56.5 49.273438 56.664062 49.324219 56.894531 C 49.371094 57.121094 49.257812 57.355469 49.042969 57.453125 C 47.726562 58.058594 46.804688 59.269531 46.570312 60.695312 C 46.535156 60.921875 46.355469 61.089844 46.128906 61.113281 C 43.734375 61.355469 42.007812 60.792969 41.136719 59.484375 C 39.515625 57.054688 38.785156 57.054688 38.011719 57.054688 C 37.886719 57.054688 37.84375 57.082031 37.84375 57.082031 C 37.824219 57.140625 37.898438 57.5 38.367188 57.96875 C 39.308594 58.910156 39.34375 58.980469 40.230469 60.753906 C 40.574219 61.441406 42 63.640625 45.9375 63.144531 C 46.082031 63.125 46.226562 63.171875 46.332031 63.265625 C 46.4375 63.359375 46.5 63.496094 46.5 63.640625 L 46.5 66.972656 C 46.5 67.496094 46.511719 67.871094 46.636719 68.269531 Z M 46.636719 68.269531 "/>
<path style=" stroke:none;fill-rule:nonzero;fill:rgb(99.607843%,99.215686%,93.72549%);fill-opacity:1;" d="M 63.097656 50.90625 C 62.246094 52.792969 60.375 54.359375 57.085938 54.625 "/>
<path style=" stroke:none;fill-rule:nonzero;fill:rgb(27.843137%,16.862745%,16.078431%);fill-opacity:1;" d="M 57.082031 54.875 C 56.953125 54.875 56.84375 54.773438 56.835938 54.644531 C 56.824219 54.507812 56.925781 54.386719 57.0625 54.375 C 60.660156 54.089844 62.203125 52.273438 62.867188 50.804688 C 62.925781 50.675781 63.074219 50.621094 63.199219 50.679688 C 63.324219 50.734375 63.382812 50.882812 63.324219 51.007812 C 62.308594 53.261719 60.097656 54.636719 57.101562 54.875 C 57.097656 54.875 57.089844 54.875 57.082031 54.875 Z M 57.082031 54.875 "/>
<path style=" stroke:none;fill-rule:nonzero;fill:rgb(99.607843%,99.215686%,93.72549%);fill-opacity:1;" d="M 63.59375 47.164062 C 63.695312 47.878906 63.695312 48.632812 63.5625 49.382812 "/>
<path style=" stroke:none;fill-rule:nonzero;fill:rgb(27.843137%,16.862745%,16.078431%);fill-opacity:1;" d="M 63.5625 49.632812 C 63.550781 49.632812 63.535156 49.632812 63.519531 49.628906 C 63.382812 49.605469 63.292969 49.476562 63.316406 49.339844 C 63.4375 48.644531 63.449219 47.90625 63.34375 47.199219 C 63.324219 47.066406 63.417969 46.9375 63.554688 46.917969 C 63.6875 46.898438 63.816406 46.992188 63.839844 47.128906 C 63.953125 47.898438 63.941406 48.671875 63.808594 49.425781 C 63.789062 49.546875 63.683594 49.632812 63.5625 49.632812 Z M 63.5625 49.632812 "/>
<path style=" stroke:none;fill-rule:nonzero;fill:rgb(99.607843%,99.215686%,93.72549%);fill-opacity:1;" d="M 61.816406 43.820312 C 62.414062 44.246094 62.902344 44.933594 63.222656 45.765625 "/>
<path style=" stroke:none;fill-rule:nonzero;fill:rgb(27.843137%,16.862745%,16.078431%);fill-opacity:1;" d="M 63.222656 46.015625 C 63.125 46.015625 63.03125 45.953125 62.992188 45.855469 C 62.675781 45.046875 62.21875 44.414062 61.671875 44.023438 C 61.558594 43.945312 61.53125 43.789062 61.613281 43.675781 C 61.691406 43.5625 61.847656 43.535156 61.960938 43.613281 C 62.589844 44.0625 63.105469 44.773438 63.457031 45.675781 C 63.507812 45.804688 63.441406 45.945312 63.316406 45.996094 C 63.285156 46.007812 63.253906 46.015625 63.222656 46.015625 Z M 63.222656 46.015625 "/>
</g>
</svg>
